<?xml version="1.0" encoding="UTF-8"?>
<svg id="Camada_1" data-name="Camada 1" xmlns="http://www.w3.org/2000/svg" viewBox="0 0 770.12 744.15">
  <defs>
    <style>
      .cls-1 {
        fill: #e2e9f1;
      }

      .cls-1, .cls-2, .cls-3, .cls-4, .cls-5, .cls-6, .cls-7, .cls-8, .cls-9, .cls-10, .cls-11, .cls-12, .cls-13, .cls-14 {
        stroke-width: 0px;
      }

      .cls-2 {
        fill: #9ec7e2;
      }

      .cls-3 {
        fill: #bde0eb;
      }

      .cls-4 {
        fill: #5391bf;
      }

      .cls-5 {
        fill: #a5c9e2;
      }

      .cls-6 {
        fill: #75a7c6;
      }

      .cls-7 {
        fill: #afd4e9;
      }

      .cls-8 {
        fill: #88badb;
      }

      .cls-9 {
        fill: #e5e9ef;
      }

      .cls-10 {
        fill: #2379c1;
      }

      .cls-11 {
        fill: #2279c1;
      }

      .cls-12 {
        fill: #e2e9f0;
      }

      .cls-13 {
        fill: #6199c0;
      }

      .cls-14 {
        fill: #4c8bbd;
      }
    </style>
  </defs>
  <path class="cls-11" d="M4.2,634.57c-.29-.4-.4-.84-.33-1.33-.53-2.23-1.07-4.47-1.6-6.7-.26-.45-.34-.93-.25-1.44-.54-2.87-1.08-5.73-1.61-8.6-.14-1.12-.27-2.24-.41-3.36,0-12.45,0-24.91,0-37.36.13-1.12.27-2.24.4-3.36.53-2.87,1.06-5.75,1.59-8.63,4.98-28.09,18.17-51.86,38.27-71.83,16.51-16.4,33.3-32.51,49.99-48.72,24.08-23.39,48.18-46.77,72.28-70.15,4.82,15.09,12.76,28.56,22.54,40.8,14.32,17.93,28.33,36.25,44.12,52.83,43.62,45.79,88,90.88,145.61,119.75-1.35,1.85-2.45,3.96-4.08,5.53-38.18,36.73-76.38,73.45-114.67,110.06-18.39,17.59-39.8,30.11-64.47,36.62-8.86,2.34-17.98,3.67-26.99,5.46-8.63-2.78-17.34-2.01-26.06-.54-2.67-.35-5.33-.7-8-1.05-1.9-2.35-3.9-2.45-6.02-.29-47.88-9.64-84.27-35.27-108.31-78-1.62-2.88-2.85-5.98-4.27-8.99-.57-.84-1.15-1.68-1.72-2.52,0,0-.02,0-.02,0-.67-2.06-1.34-4.13-2.01-6.19-.33-.31-.48-.68-.47-1.13-.5-.89-1.01-1.78-1.51-2.67,0,0-.03-.01-.02-.01-.66-2.73-1.32-5.46-1.97-8.19ZM42.5,576.42c-.18.18-.51.37-.51.55,0,.47.15.93.24,1.4-.4,7.32-.8,14.65-1.2,21.97.07.75.14,1.5.2,2.26.5,3.63.47,7.42,1.59,10.85,3.91,11.98,7.72,24.04,12.58,35.64,2.48,5.92,14.07,7.76,19.31,4.22,4.78-3.23,5.97-11.04,1.99-17.16-6.67-10.26-9.63-21.67-11.45-33.52.03-5.44.05-10.88.08-16.33,2.49-20.12,10.2-37.93,24.57-52.34,18.8-18.86,38.03-37.3,57.07-55.91,5.48-5.35,11.15-10.51,16.4-16.08,4.73-5.02,4.63-13.93.28-18.1-4.64-4.45-11.23-4.35-17.23.28-.79.61-1.5,1.32-2.21,2.02-23.55,23.06-47.42,45.8-70.52,69.3-16.61,16.9-27.99,36.96-31.18,60.96Z"/>
  <path class="cls-10" d="M756.92,88.31c.37.22.51.54.42.96.45,1.03.9,2.06,1.35,3.09.36.32.5.71.43,1.18.61,1.59,1.22,3.19,1.83,4.78.37.25.5.59.37,1.02.57,1.65,1.15,3.3,1.72,4.94.38.26.49.6.34,1.03.5,1.67,1,3.34,1.51,5.01.34.32.44.71.3,1.15.58,2.36,1.17,4.72,1.75,7.08.35,1.27.71,2.54,1.06,3.82-1.95,3.04-2.15,5.84,1.09,8.19.31,1.94.62,3.88.94,5.82.03,8.66.07,17.33.1,25.99-.27,1.93-.54,3.86-.81,5.8-3.56,2.29-3.26,5.13-1.15,8.21-.32,1.26-.64,2.52-.96,3.78-.82,2.15-1.64,4.3-2.45,6.45-2.38,7.81-4.11,15.88-7.26,23.36-6.79,16.13-16.87,30.2-29.39,42.41-37.64,36.73-75.38,73.37-113.13,109.99-1.87,1.82-4.21,3.15-6.33,4.71-3.52-7.75-6.54-15.77-10.7-23.16-4.39-7.8-9.55-15.23-14.94-22.39-28.7-38.19-61.91-72.21-97.54-103.85-26.6-23.62-53.38-47.2-86.83-61.25-.89-.37-1.03-2.55-1.52-3.89,13.98-13.32,28.04-26.56,41.92-39.99,23.96-23.17,47.68-46.58,71.74-69.65,20.35-19.51,44.09-33.35,71.81-39.18,19.5-4.1,39.04-5.03,59.17-1.78,40.52,6.54,73.16,25.38,98.43,57.46.2.25.29.6.43.9.84,1.21,1.69,2.42,2.53,3.63,0,0-.1-.1-.1-.1,1.37,2.04,2.73,4.07,4.1,6.11,0,0-.1-.1-.1-.1,1.28,2.12,2.55,4.23,3.83,6.35,0,0-.04-.08-.05-.08.72,1.33,1.43,2.67,2.15,4,0,0-.05-.07-.05-.07.68,1.36,1.36,2.72,2.03,4.08,0,0-.05-.07-.05-.07.67,1.41,1.34,2.82,2.02,4.23ZM602.48,41.68c-1.92.26-3.84.52-5.76.78-24.15,4.24-44.06,16.47-61.53,33.05-21.25,20.18-42.33,40.55-63.46,60.86-1.44,1.38-2.57,3.13-4.13,4.33-3.91,2.98-4.2,7.36-2.22,10.65,1.81,3.03,5.5,5.91,8.9,6.8,6.38,1.67,11.86-.55,16.94-5.57,21.57-21.29,43.54-42.16,65.43-63.12,20.05-19.21,44.23-26.2,71.49-23.88.87.14,1.74.28,2.61.42,13.8,2.33,26.67,6.92,38.28,14.95,8.08,5.59,11.62,4.95,19.51-2.67.35-.7.71-1.39,1.06-2.09,2.52-7.45-1.37-12.02-7.1-15.74-14.06-9.15-29.37-15.14-45.87-18.14-1.32-.2-2.64-.4-3.96-.6-8-.29-15.99-.57-23.99-.86-.74.07-1.47.13-2.21.2-1.33.21-2.67.42-4,.63Z"/>
  <path class="cls-11" d="M490.53,410.81h-56.54c0,8.92,0,16.82,0,24.72.01,9.31.27,18.62-.01,27.92-.3,9.71-4.53,14.09-14.2,14.23-18.61.26-37.23.23-55.84-.03-9.95-.14-13.81-4.21-13.93-14.15-.16-13.96-.03-27.92-.02-41.88,0-3.25,0-6.49,0-10.94-19.72,0-38.55,0-57.37,0-.64-.16-1.28-.31-1.92-.47-2.29-3.07-4.59-6.14-6.88-9.22,0-21.05,0-42.1,0-63.15,1.31-7.23,6.25-9.67,12.93-9.68,13.59-.02,27.18.01,40.77.02,3.63,0,7.26,0,12.33,0,.05-19.55.1-38.62.15-57.69.17-.7.35-1.41.52-2.11,2.86-4.73,7.08-6.5,12.55-6.47,19.24.14,38.49-.06,57.74.13,9.24.09,12.94,3.94,13.12,13.66.25,13.6.05,27.21.1,40.82.01,3.31.26,6.61.39,9.92.73.5,1.46,1,2.2,1.51,16.6.08,33.2.19,49.8.23,5.68.01,10.62,1.12,12.58,7.39,0,22.55,0,45.1-.01,67.64-2.15,2.4-4.3,4.8-6.44,7.2-.68.13-1.36.27-2.03.4Z"/>
  <path class="cls-9" d="M374.8,586.49c-57.61-28.87-101.99-73.96-145.61-119.75-15.79-16.58-29.8-34.9-44.12-52.83-9.78-12.24-17.72-25.71-22.54-40.8,2.53-4.36,6.4-2.98,9.65-1.71,6.79,2.67,13.97,5.02,19.91,9.07,14.51,9.88,28.49,20.53,42.53,31.09,18.12,13.62,33.54,30.21,50.03,45.65,16.25,15.22,31.43,31.34,45.88,48.21,10.13,11.83,20.61,23.45,29.63,36.1,6.87,9.64,12.21,20.5,17.17,31.3,1.88,4.1,4.54,10.32-2.52,13.68Z"/>
  <path class="cls-9" d="M397.11,152.55c.49,1.34.62,3.51,1.52,3.89,33.45,14.04,60.24,37.63,86.83,61.25,35.63,31.64,68.84,65.66,97.54,103.85,5.39,7.17,10.54,14.6,14.94,22.39,4.16,7.39,7.18,15.41,10.7,23.16-1.43,4.69-5.28,3.69-8.23,2.82-4.75-1.4-9.71-2.95-13.76-5.66-14.83-9.97-29.7-19.96-43.86-30.85-30.89-23.73-58.72-50.94-85.17-79.39-17.78-19.12-33.91-39.83-50.04-60.41-5.63-7.19-9.26-16-13.43-24.27-4.56-9.04-4.36-9.14,2.97-16.79Z"/>
  <path class="cls-14" d="M499.01,403.21c0-22.55,0-45.09.01-67.64.57,2.17,1.63,4.34,1.64,6.51.13,18.2.13,36.4,0,54.6-.02,2.18-1.07,4.35-1.64,6.53Z"/>
  <path class="cls-6" d="M283.83,337.84c0,21.05,0,42.1,0,63.15-.42-1.57-1.21-3.13-1.21-4.7-.09-17.91-.09-35.83,0-53.74,0-1.57.8-3.14,1.22-4.7Z"/>
  <path class="cls-4" d="M770.12,162.38c-.03-8.66-.07-17.33-.1-25.99.03,8.66.07,17.33.1,25.99Z"/>
  <path class="cls-13" d="M138.53,743.61c8.72-1.47,17.43-2.24,26.06.54-8.69-.18-17.38-.36-26.06-.54Z"/>
  <path class="cls-4" d="M769.08,130.57c-3.24-2.35-3.04-5.15-1.09-8.19.36,2.73.73,5.46,1.09,8.19Z"/>
  <path class="cls-4" d="M768.16,176.39c-2.11-3.09-2.41-5.92,1.15-8.21-.38,2.74-.77,5.48-1.15,8.21Z"/>
  <path class="cls-4" d="M764.75,186.62c.82-2.15,1.64-4.3,2.45-6.45-.82,2.15-1.64,4.3-2.45,6.45Z"/>
  <path class="cls-4" d="M766.92,118.57c-.58-2.36-1.17-4.72-1.75-7.08.58,2.36,1.17,4.72,1.75,7.08Z"/>
  <path class="cls-13" d="M4.2,634.57c.66,2.73,1.32,5.46,1.97,8.19-.66-2.73-1.32-5.46-1.97-8.19Z"/>
  <path class="cls-4" d="M747.13,69.96c-1.37-2.04-2.73-4.07-4.1-6.11,1.37,2.03,2.73,4.07,4.1,6.11Z"/>
  <path class="cls-13" d="M.41,616.5c.54,2.86,1.08,5.73,1.61,8.6-.54-2.86-1.08-5.73-1.61-8.6Z"/>
  <path class="cls-4" d="M750.86,76.21c-1.28-2.12-2.55-4.23-3.83-6.35,1.28,2.12,2.55,4.23,3.83,6.35Z"/>
  <path class="cls-13" d="M1.99,563.8c-.53,2.88-1.06,5.75-1.59,8.63.53-2.88,1.06-5.75,1.59-8.63Z"/>
  <path class="cls-13" d="M124.52,742.27c2.11-2.16,4.12-2.06,6.02.29l-6.02-.29Z"/>
  <path class="cls-13" d="M2.27,626.54c.53,2.23,1.07,4.46,1.6,6.7-.53-2.23-1.07-4.46-1.6-6.7Z"/>
  <path class="cls-13" d="M8.18,646.57c.67,2.06,1.34,4.13,2.01,6.19-.67-2.06-1.34-4.13-2.01-6.19Z"/>
  <path class="cls-4" d="M743.13,63.95c-.84-1.21-1.69-2.42-2.53-3.63.84,1.21,1.69,2.42,2.53,3.63Z"/>
  <path class="cls-4" d="M752.96,80.14c-.72-1.33-1.43-2.67-2.15-4,.72,1.33,1.43,2.67,2.15,4Z"/>
  <path class="cls-4" d="M756.92,88.31c-.67-1.41-1.34-2.82-2.02-4.23.67,1.41,1.34,2.82,2.02,4.23Z"/>
  <path class="cls-4" d="M764.88,110.34c-.5-1.67-1.01-3.34-1.51-5.01.5,1.67,1,3.34,1.51,5.01Z"/>
  <path class="cls-4" d="M754.95,84.15c-.68-1.36-1.36-2.72-2.03-4.08.68,1.36,1.36,2.72,2.03,4.08Z"/>
  <path class="cls-4" d="M763.03,104.29c-.57-1.65-1.15-3.29-1.72-4.94.57,1.65,1.15,3.29,1.72,4.94Z"/>
  <path class="cls-4" d="M760.94,98.33c-.61-1.59-1.22-3.19-1.83-4.78.61,1.59,1.22,3.19,1.83,4.78Z"/>
  <path class="cls-3" d="M436.63,327.95c-.73-.5-1.46-1-2.2-1.51.73.5,1.46,1,2.2,1.51Z"/>
  <path class="cls-7" d="M350.53,268.39c-.17.7-.35,1.41-.52,2.11-.1-.55-.27-1.09-.26-1.64,0-.16.51-.31.78-.47Z"/>
  <path class="cls-7" d="M290.7,410.21c.64.16,1.28.31,1.92.47-.64-.16-1.28-.31-1.92-.47Z"/>
  <path class="cls-13" d="M10.22,652.77c.57.84,1.15,1.68,1.72,2.52-.57-.84-1.15-1.68-1.72-2.52Z"/>
  <path class="cls-13" d="M6.2,642.77c.51.89,1.01,1.78,1.51,2.67-.51-.89-1.01-1.78-1.51-2.67Z"/>
  <path class="cls-3" d="M490.53,410.81c.68-.13,1.36-.27,2.03-.4-.68.13-1.36.27-2.03.4Z"/>
  <path class="cls-4" d="M758.69,92.36c-.45-1.03-.9-2.06-1.35-3.09.45,1.03.9,2.06,1.35,3.09Z"/>
  <path class="cls-1" d="M65.24,602.63c1.82,11.85,4.78,23.26,11.45,33.52,3.98,6.12,2.79,13.93-1.99,17.16-5.23,3.54-16.82,1.7-19.31-4.22-4.86-11.6-8.67-23.66-12.58-35.64-1.12-3.42-1.09-7.22-1.59-10.85.19-.24.57-.54.52-.72-.15-.54-.47-1.03-.72-1.54.4-7.32.8-14.65,1.2-21.97.09-.65.18-1.3.27-1.95,3.19-24,14.57-44.06,31.18-60.96,23.1-23.5,46.98-46.24,70.52-69.3.71-.7,1.43-1.41,2.21-2.02,6-4.63,12.59-4.73,17.23-.28,4.35,4.17,4.44,13.07-.28,18.1-5.24,5.57-10.92,10.73-16.4,16.08-19.05,18.61-38.27,37.05-57.07,55.91-14.37,14.41-22.08,32.22-24.57,52.34-.03,5.44-.05,10.88-.08,16.33Z"/>
  <path class="cls-6" d="M65.24,602.63c.03-5.44.05-10.88.08-16.33-.03,5.44-.05,10.88-.08,16.33Z"/>
  <path class="cls-2" d="M42.5,576.42c-.09.65-.18,1.3-.27,1.95-.09-.47-.24-.93-.24-1.4,0-.18.33-.37.51-.55Z"/>
  <path class="cls-2" d="M41.02,600.34c.25.51.57,1,.72,1.54.05.18-.34.47-.52.72-.07-.75-.14-1.5-.2-2.26Z"/>
  <path class="cls-12" d="M636.64,42.3c16.49,3,31.8,8.99,45.87,18.14,5.73,3.73,9.61,8.29,7.1,15.74-.35.7-.71,1.39-1.06,2.09-7.89,7.61-11.44,8.25-19.51,2.67-11.61-8.03-24.49-12.62-38.28-14.95-.87-.14-1.74-.28-2.61-.42-27.26-2.32-51.44,4.67-71.49,23.88-21.88,20.96-43.86,41.84-65.43,63.12-5.08,5.01-10.56,7.24-16.94,5.57-3.4-.89-7.08-3.77-8.9-6.8-1.98-3.3-1.69-7.67,2.22-10.65,1.57-1.19,2.69-2.94,4.13-4.33,21.13-20.31,42.21-40.68,63.46-60.86,17.47-16.59,37.38-28.81,61.53-33.05,1.92-.26,3.84-.52,5.76-.78,1.33-.21,2.67-.42,4-.63.74-.07,1.47-.13,2.21-.2,8,.29,15.99.57,23.99.86,1.32.2,2.64.4,3.96.6Z"/>
  <path class="cls-5" d="M602.48,41.68c-1.92.26-3.84.52-5.76.78,1.92-.26,3.84-.52,5.76-.78Z"/>
  <path class="cls-5" d="M636.64,42.3c-1.32-.2-2.64-.4-3.96-.6,1.32.2,2.64.4,3.96.6Z"/>
  <path class="cls-5" d="M608.69,40.84c-.74.07-1.47.13-2.21.2.74-.07,1.47-.13,2.21-.2Z"/>
  <path class="cls-8" d="M628.14,65.57c.87.14,1.74.28,2.61.42-.87-.14-1.74-.28-2.61-.42Z"/>
  <path class="cls-2" d="M688.54,78.28c.35-.7.71-1.39,1.06-2.09-.35.7-.71,1.39-1.06,2.09Z"/>
</svg>