<?xml version="1.0" encoding="UTF-8"?>
<svg id="Camada_1" data-name="Camada 1" xmlns="http://www.w3.org/2000/svg" viewBox="0 0 1158.54 1158.54">
  <defs>
    <style>
      .cls-1 {
        fill: #000;
        stroke-width: 0px;
      }

      .cls-2 {
        fill: none;
        stroke: #000;
        stroke-miterlimit: 10;
        stroke-width: 30px;
      }
    </style>
  </defs>
  <g>
    <path class="cls-1" d="M498.56,390.79c8.78-3.84,14.57-9.85,20.71-15.25,13.6-11.95,29.42-17.77,47.44-17.88,40.49-.25,59.52,33.16,61.06,58.83,1.87,31.18-9.57,57.63-30.13,79.93-37.03,40.16-83.38,60.45-138.07,61.62-32.28.69-62.86-5.75-90.95-22-38.64-22.36-62.29-56.06-73.76-98.82-9.82-36.6-8.74-73.15.81-109.52,18.25-69.48,60.02-121.53,120.11-159.4,38.66-24.36,81.38-37.22,126.64-42.24,58.86-6.53,115.49,1.38,169.38,26.28,52.88,24.42,94.86,61.25,123.66,112.16,26.23,46.38,38.32,96.43,33.55,149.63-5.46,60.87-28.92,114.32-70.04,159.82-19.03,21.06-40.6,39.36-62.11,57.77-14.15,12.11-28.03,24.6-41.46,37.5-23.75,22.81-37.02,50.69-39.61,83.73-3.27,41.79-34.09,70.27-75.91,70.73-33.05.37-57.95-13.07-72.29-43.5-7.13-15.15-8.14-31.52-6.57-47.93,3.75-39.32,15.26-76.22,35.84-110.07,12.17-20.02,27.18-37.84,43.89-54.18,14.76-14.43,30.27-28.09,44.72-42.82,9.75-9.94,18.72-20.75,27.14-31.86,15.39-20.3,22.35-43.96,22.92-69.03,1.07-46.95-30.51-96.21-86.53-103.13-31.13-3.85-56.97,5.98-77.36,29.76-9.55,11.14-14.66,26.6-13.1,39.87ZM580.04,143.1c-31.13.07-52.17,2.84-89.37,13.97-80.75,24.15-136.81,75.94-168.43,153.76-12.99,31.98-16.45,65.69-11.81,100,3.49,25.81,12.34,49.76,27.61,70.89,26.73,37,64.96,52.83,108.93,56.11,38.08,2.84,73.12-7.91,105.16-28.19,20.01-12.67,36.06-29.39,46.98-50.65,7.54-14.67,10.19-30.27,7.3-46.48-2.69-15.08-10.68-26.72-25.63-31.75-17.75-5.98-33.77-2.43-48.31,9.84-9.35,7.89-19.57,14.84-29.92,21.38-3.97,2.51-9.36,3.49-14.18,3.79-6.91.43-11.12-3.9-11.75-10.79-4.35-47.59,23.5-84.22,64.05-98.27,33.68-11.67,66.73-7.86,97.88,10.64,42.48,25.23,62.25,77.33,56.29,121.75-4.67,34.83-19.99,64.6-44.6,89.46-14.98,15.13-30.58,29.66-46.03,44.32-26.04,24.71-48.75,51.81-63.28,85.12-12.11,27.76-19.94,56.45-19.67,86.9.07,7.86.55,16.27,3.32,23.47,15.16,39.36,69.35,48.35,97.34,16.68,9.53-10.78,13.28-23.44,14.28-37.44,1.97-27.61,10.69-53.05,28.81-74.08,12.97-15.06,27.57-28.82,42.22-42.33,20.29-18.72,41.78-36.14,61.9-55.03,32.4-30.42,55.8-67.15,68.93-109.5,17.65-56.97,15.33-113.45-9.01-168.53-15.47-35.01-37.58-65.03-66.86-89.61-52.64-44.18-114.18-63.83-182.13-65.44Z"/>
    <path class="cls-1" d="M632.77,890.3v-14.5c4.38,0,8.29-.15,12.19.03,12.97.6,21.02,8.53,21.16,21.57.25,22.62.08,45.25.1,67.88.01,24.96.19,49.91-.08,74.87-.05,4.81-.96,10.04-3.05,14.31-3.39,6.92-9.32,11.07-17.59,10.97-7.32-.1-14.64.09-21.96.09-36.6-.03-73.21-.36-109.81.03-13.1.14-23.76-11.11-23.04-23.44.06-.99,0-2,0-2.99-.01-45.25-.06-90.51-.01-135.76.02-21.81,10.12-30,33.19-26.48v13.84c-3.4.21-6.32.28-9.22.58-6.13.64-8.18,2.7-8.71,8.69-.15,1.65-.04,3.33-.04,4.99,0,43.59.02,87.18.03,130.77,0,1.66-.09,3.33.04,4.99.51,6.81,2.45,8.78,9.1,9.28,1.66.12,3.33.05,4.99.05,38.93,0,77.86,0,116.8,0,2.33,0,4.66-.04,6.99-.12,4.38-.15,6.74-2.62,7.2-6.79.36-3.3.42-6.64.42-9.96.03-42.59-.16-85.19.15-127.78.09-11.98-2.71-15.76-14.09-14.57-1.26.13-2.57-.27-4.74-.53Z"/>
    <path class="cls-1" d="M555.63,867.74c3.8-11.7,9.39-20.82,22.82-20.7,13.15.12,19.4,8.5,22.76,20.8,3.53,0,6.8-.16,10.05.03,7.23.43,10.44,3.24,10.93,10.23.37,5.29.37,10.67-.18,15.94-.62,5.99-3.79,9.1-9.84,9.16-22.29.23-44.59.23-66.88,0-6.66-.07-10.37-3.87-10.97-10.49-.42-4.62-.4-9.32-.1-13.96.48-7.22,4.17-10.64,11.45-10.99,3.28-.16,6.57-.03,9.95-.03ZM578.43,875.86c5.33-.02,8.93-3.61,8.72-8.7-.2-4.94-4.25-8.54-9.31-8.27-4.55.24-8.14,3.86-8.27,8.33-.14,4.93,3.68,8.66,8.86,8.64Z"/>
    <path class="cls-1" d="M627.67,989.74c4.22,4.4,8.35,8.67,12.45,12.97,1.6,1.68,3.73,3.17,4.56,5.19.74,1.79.8,5-.3,6.07-1.06,1.03-4.64.94-6-.11-3.65-2.82-6.69-6.42-10-9.68-2.56-2.52-5.17-4.99-7.47-7.2-21.91,7.26-35.5,4.04-43.77-9.88-7.54-12.69-5.29-28.19,5.55-38.18,9.92-9.15,25.5-10.13,36.82-2.32,13.04,9,15.94,23.02,8.16,43.13ZM601.87,947.7c-13.06.25-22.87,10.73-22.6,24.12.27,13.31,10.56,23.66,23.39,23.53,13.13-.14,23.98-11.56,23.49-24.7-.48-12.75-11.52-23.19-24.28-22.94Z"/>
    <path class="cls-1" d="M525.25,985.69h37.8c1.13,11.53.77,22.81.14,35.03-12.74,1.48-24.76.67-38.04.44-.7-12.17-.77-23.47.1-35.47ZM554.4,1013.53v-20.21h-20.43v20.21h20.43Z"/>
    <path class="cls-1" d="M543.12,970.33c-7.46-7.06-14.17-13.41-21.58-20.43,2.67-3.1,4.94-5.75,7.53-8.77,4.77,3.99,9.03,7.56,14.08,11.78,8.03-8.78,15.79-17.27,24.19-26.45,3.04,2.65,5.68,4.96,8.78,7.66-11.09,12.17-21.76,23.88-33,36.21Z"/>
    <path class="cls-1" d="M779.2,411.17c-.07,27.39-6.42,53.42-16.58,78.64-.74,1.83-1.65,3.67-2.83,5.23-3.41,4.52-8.74,5.77-13.21,3.33-4.47-2.44-6.33-7.41-4.47-12.84,2.59-7.54,5.73-14.9,8.11-22.5,16.98-54.25,8.34-105.07-24.17-150.8-30.43-42.8-72.74-68.54-125.08-76.39-42.79-6.41-84.18-1.81-123.44,17.52-45.47,22.38-73.95,58.1-82.48,108.16-4.43,26.04-2.59,51.87,14.12,74.43,15.39,20.78,35.16,33.46,61.73,32.46,19.53-.73,34.43-9.27,41.81-28.38.36-.93.74-1.86,1.24-2.72,2.78-4.74,6.91-6.55,11.74-5.07,4.84,1.49,6.93,5.18,6.76,9.88-.1,2.89-.87,5.95-2.07,8.59-11.15,24.55-31.09,37.02-57.23,38.54-33.73,1.97-59.97-13.35-79.26-39.99-20.45-28.23-25.19-60.33-18.54-94.12,10.52-53.5,40.99-92.11,88.99-117.28,36.79-19.29,76.05-28.56,117.4-25.35,95.46,7.41,171.98,68.23,192.57,157.08,1.35,5.82,2.49,11.73,3.14,17.66.88,7.93,1.18,15.92,1.74,23.89Z"/>
    <path class="cls-1" d="M618.87,969.86c-2.92-9.72-10.03-14.08-19.63-15.26,12.48-2.65,19.56,2.89,19.63,15.26Z"/>
  </g>
  <circle class="cls-2" cx="579.27" cy="579.27" r="564.27"/>
</svg>