<?xml version="1.0" encoding="UTF-8"?>
<svg id="Camada_1" data-name="Camada 1" xmlns="http://www.w3.org/2000/svg" version="1.1" viewBox="0 0 1158.5 1158.5">
  <defs>
    <style>
      .cls-1 {
        fill: #000;
        stroke-width: 0px;
      }

      .cls-2 {
        fill: none;
        stroke: #000;
        stroke-miterlimit: 10;
        stroke-width: 30px;
      }
    </style>
  </defs>
  <g>
    <path class="cls-1" d="M498.6,390.8c8.8-3.8,14.6-9.9,20.7-15.2,13.6-12,29.4-17.8,47.4-17.9,40.5-.2,59.5,33.2,61.1,58.8,1.9,31.2-9.6,57.6-30.1,79.9-37,40.2-83.4,60.5-138.1,61.6-32.3.7-62.9-5.8-91-22-38.6-22.4-62.3-56.1-73.8-98.8-9.8-36.6-8.7-73.1.8-109.5,18.2-69.5,60-121.5,120.1-159.4,38.7-24.4,81.4-37.2,126.6-42.2,58.9-6.5,115.5,1.4,169.4,26.3,52.9,24.4,94.9,61.2,123.7,112.2,26.2,46.4,38.3,96.4,33.5,149.6-5.5,60.9-28.9,114.3-70,159.8-19,21.1-40.6,39.4-62.1,57.8-14.2,12.1-28,24.6-41.5,37.5-23.8,22.8-37,50.7-39.6,83.7-3.3,41.8-34.1,70.3-75.9,70.7-33,.4-58-13.1-72.3-43.5-7.1-15.2-8.1-31.5-6.6-47.9,3.8-39.3,15.3-76.2,35.8-110.1,12.2-20,27.2-37.8,43.9-54.2,14.8-14.4,30.3-28.1,44.7-42.8,9.8-9.9,18.7-20.8,27.1-31.9,15.4-20.3,22.3-44,22.9-69,1.1-47-30.5-96.2-86.5-103.1-31.1-3.9-57,6-77.4,29.8-9.5,11.1-14.7,26.6-13.1,39.9h0ZM580,143.1c-31.1,0-52.2,2.8-89.4,14-80.8,24.1-136.8,75.9-168.4,153.8-13,32-16.5,65.7-11.8,100,3.5,25.8,12.3,49.8,27.6,70.9,26.7,37,65,52.8,108.9,56.1,38.1,2.8,73.1-7.9,105.2-28.2,20-12.7,36.1-29.4,47-50.6,7.5-14.7,10.2-30.3,7.3-46.5-2.7-15.1-10.7-26.7-25.6-31.8-17.8-6-33.8-2.4-48.3,9.8-9.3,7.9-19.6,14.8-29.9,21.4-4,2.5-9.4,3.5-14.2,3.8-6.9.4-11.1-3.9-11.8-10.8-4.4-47.6,23.5-84.2,64.1-98.3,33.7-11.7,66.7-7.9,97.9,10.6,42.5,25.2,62.2,77.3,56.3,121.8-4.7,34.8-20,64.6-44.6,89.5-15,15.1-30.6,29.7-46,44.3-26,24.7-48.8,51.8-63.3,85.1-12.1,27.8-19.9,56.5-19.7,86.9,0,7.9.5,16.3,3.3,23.5,15.2,39.4,69.3,48.3,97.3,16.7,9.5-10.8,13.3-23.4,14.3-37.4,2-27.6,10.7-53,28.8-74.1,13-15.1,27.6-28.8,42.2-42.3,20.3-18.7,41.8-36.1,61.9-55,32.4-30.4,55.8-67.1,68.9-109.5,17.7-57,15.3-113.5-9-168.5-15.5-35-37.6-65-66.9-89.6-52.6-44.2-114.2-63.8-182.1-65.4h0Z"/>
    <path class="cls-1" d="M632.8,890.3v-14.5c4.4,0,8.3-.2,12.2,0,13,.6,21,8.5,21.2,21.6.2,22.6,0,45.2,0,67.9,0,25,.2,49.9,0,74.9,0,4.8-1,10-3,14.3-3.4,6.9-9.3,11.1-17.6,11-7.3,0-14.6,0-22,0-36.6,0-73.2-.4-109.8,0-13.1.1-23.8-11.1-23-23.4,0-1,0-2,0-3,0-45.2,0-90.5,0-135.8,0-21.8,10.1-30,33.2-26.5v13.8c-3.4.2-6.3.3-9.2.6-6.1.6-8.2,2.7-8.7,8.7-.1,1.7,0,3.3,0,5,0,43.6,0,87.2,0,130.8,0,1.7,0,3.3,0,5,.5,6.8,2.5,8.8,9.1,9.3,1.7.1,3.3,0,5,0h116.8c2.3,0,4.7,0,7-.1,4.4-.2,6.7-2.6,7.2-6.8.4-3.3.4-6.6.4-10,0-42.6-.2-85.2.2-127.8,0-12-2.7-15.8-14.1-14.6-1.3.1-2.6-.3-4.7-.5h0Z"/>
    <path class="cls-1" d="M555.6,867.7c3.8-11.7,9.4-20.8,22.8-20.7,13.2.1,19.4,8.5,22.8,20.8,3.5,0,6.8-.2,10,0,7.2.4,10.4,3.2,10.9,10.2.4,5.3.4,10.7-.2,15.9-.6,6-3.8,9.1-9.8,9.2-22.3.2-44.6.2-66.9,0-6.7,0-10.4-3.9-11-10.5-.4-4.6-.4-9.3,0-14,.5-7.2,4.2-10.6,11.5-11,3.3-.2,6.6,0,10,0h0ZM578.4,875.9c5.3,0,8.9-3.6,8.7-8.7-.2-4.9-4.2-8.5-9.3-8.3-4.5.2-8.1,3.9-8.3,8.3-.1,4.9,3.7,8.7,8.9,8.6h0Z"/>
    <path class="cls-1" d="M627.7,989.7c4.2,4.4,8.3,8.7,12.5,13,1.6,1.7,3.7,3.2,4.6,5.2.7,1.8.8,5-.3,6.1-1.1,1-4.6.9-6-.1-3.7-2.8-6.7-6.4-10-9.7-2.6-2.5-5.2-5-7.5-7.2-21.9,7.3-35.5,4-43.8-9.9-7.5-12.7-5.3-28.2,5.5-38.2,9.9-9.2,25.5-10.1,36.8-2.3,13,9,15.9,23,8.2,43.1h0ZM601.9,947.7c-13.1.2-22.9,10.7-22.6,24.1.3,13.3,10.6,23.7,23.4,23.5,13.1-.1,24-11.6,23.5-24.7-.5-12.8-11.5-23.2-24.3-22.9h0Z"/>
    <path class="cls-1" d="M525.2,985.7h37.8c1.1,11.5.8,22.8.1,35-12.7,1.5-24.8.7-38,.4-.7-12.2-.8-23.5,0-35.5h0ZM554.4,1013.5v-20.2h-20.4v20.2h20.4Z"/>
    <path class="cls-1" d="M543.1,970.3c-7.5-7.1-14.2-13.4-21.6-20.4,2.7-3.1,4.9-5.8,7.5-8.8,4.8,4,9,7.6,14.1,11.8,8-8.8,15.8-17.3,24.2-26.5,3,2.7,5.7,5,8.8,7.7-11.1,12.2-21.8,23.9-33,36.2h0Z"/>
    <path class="cls-1" d="M618.9,969.9c-2.9-9.7-10-14.1-19.6-15.3,12.5-2.7,19.6,2.9,19.6,15.3Z"/>
  </g>
  <circle class="cls-2" cx="579.3" cy="579.3" r="564.3"/>
</svg>