<?xml version="1.0" encoding="UTF-8"?>
<svg id="Camada_1" data-name="Camada 1" xmlns="http://www.w3.org/2000/svg" xmlns:xlink="http://www.w3.org/1999/xlink" viewBox="0 0 344.14 325.54">
  <defs>
    <style>
      .cls-1 {
        fill: #334155;
      }

      .cls-1, .cls-2, .cls-3, .cls-4, .cls-5, .cls-6, .cls-7, .cls-8 {
        stroke-width: 0px;
      }

      .cls-2 {
        fill: #f43f5e;
      }

      .cls-9 {
        stroke: #ffe4e6;
        stroke-miterlimit: 4.65;
        stroke-width: 2.33px;
      }

      .cls-9, .cls-10, .cls-3, .cls-11 {
        fill: none;
      }

      .cls-10 {
        stroke: #fff;
      }

      .cls-10, .cls-11 {
        stroke-linecap: round;
        stroke-linejoin: round;
        stroke-width: 11.63px;
      }

      .cls-12 {
        clip-path: url(#clippath);
      }

      .cls-4 {
        fill: #64748b;
      }

      .cls-11 {
        stroke: #f43f5e;
      }

      .cls-5 {
        fill: #f8fafc;
      }

      .cls-6 {
        fill: #fff;
      }

      .cls-7 {
        fill: #1e293b;
      }

      .cls-8 {
        fill: #94a3b8;
      }
    </style>
    <clipPath id="clippath">
      <path class="cls-3" d="M158.12,309.77s-93.01-81.39-93.01-132.54c0-34.88,27.9-58.13,62.78-58.13,18.6,0,30.23,11.63,30.23,11.63,0,0,11.63-11.63,30.23-11.63,34.88,0,62.78,23.25,62.78,58.13,0,51.16-93.01,132.54-93.01,132.54Z"/>
    </clipPath>
  </defs>
  <rect class="cls-4" x="18.6" y="4.65" width="325.54" height="302.29" rx="18.6" ry="18.6"/>
  <rect class="cls-8" x="9.3" y="13.95" width="325.54" height="302.29" rx="18.6" ry="18.6"/>
  <rect class="cls-6" y="23.25" width="325.54" height="302.29" rx="18.6" ry="18.6"/>
  <path class="cls-1" d="M0,41.86c0-10.27,8.33-18.6,18.6-18.6h288.34c10.27,0,18.6,8.33,18.6,18.6v44.18H0v-44.18Z"/>
  <g>
    <line class="cls-9" y1="116.26" x2="325.54" y2="116.26"/>
    <line class="cls-9" y1="151.14" x2="325.54" y2="151.14"/>
    <line class="cls-9" y1="186.02" x2="325.54" y2="186.02"/>
    <line class="cls-9" y1="220.9" x2="325.54" y2="220.9"/>
    <line class="cls-9" y1="255.78" x2="325.54" y2="255.78"/>
    <line class="cls-9" y1="290.66" x2="325.54" y2="290.66"/>
    <line class="cls-9" x1="34.88" y1="86.04" x2="34.88" y2="325.54"/>
    <line class="cls-9" x1="69.76" y1="86.04" x2="69.76" y2="325.54"/>
    <line class="cls-9" x1="104.64" y1="86.04" x2="104.64" y2="325.54"/>
    <line class="cls-9" x1="139.52" y1="86.04" x2="139.52" y2="325.54"/>
    <line class="cls-9" x1="174.4" y1="86.04" x2="174.4" y2="325.54"/>
    <line class="cls-9" x1="209.28" y1="86.04" x2="209.28" y2="325.54"/>
    <line class="cls-9" x1="244.16" y1="86.04" x2="244.16" y2="325.54"/>
    <line class="cls-9" x1="279.04" y1="86.04" x2="279.04" y2="325.54"/>
  </g>
  <path class="cls-5" d="M60.46,0h0c5.14,0,9.3,4.16,9.3,9.3v27.9c0,5.14-4.16,9.3-9.3,9.3h0c-5.14,0-9.3-4.16-9.3-9.3V9.3c0-5.14,4.16-9.3,9.3-9.3Z"/>
  <circle class="cls-7" cx="60.46" cy="37.2" r="5.81"/>
  <path class="cls-5" d="M162.77,0h0c5.14,0,9.3,4.16,9.3,9.3v27.9c0,5.14-4.16,9.3-9.3,9.3h0c-5.14,0-9.3-4.16-9.3-9.3V9.3c0-5.14,4.16-9.3,9.3-9.3Z"/>
  <circle class="cls-7" cx="162.77" cy="37.2" r="5.81"/>
  <path class="cls-5" d="M265.08,0h0c5.14,0,9.3,4.16,9.3,9.3v27.9c0,5.14-4.16,9.3-9.3,9.3h0c-5.14,0-9.3-4.16-9.3-9.3V9.3c0-5.14,4.16-9.3,9.3-9.3Z"/>
  <circle class="cls-7" cx="265.08" cy="37.2" r="5.81"/>
  <g>
    <path class="cls-11" d="M18.6,216.75h58.13c6.98-13.95,18.6-13.95,25.58,0h13.95l9.3,18.6,18.6-104.64,18.6,125.57,11.63-39.53h13.95c11.63-23.25,32.55-23.25,44.18,0h65.11"/>
    <path class="cls-2" d="M158.12,309.77s-93.01-81.39-93.01-132.54c0-34.88,27.9-58.13,62.78-58.13,18.6,0,30.23,11.63,30.23,11.63,0,0,11.63-11.63,30.23-11.63,34.88,0,62.78,23.25,62.78,58.13,0,51.16-93.01,132.54-93.01,132.54Z"/>
  </g>
  <g class="cls-12">
    <path class="cls-10" d="M18.6,216.75h58.13c6.98-13.95,18.6-13.95,25.58,0h13.95l9.3,18.6,18.6-104.64,18.6,125.57,11.63-39.53h13.95c11.63-23.25,32.55-23.25,44.18,0h65.11"/>
  </g>
</svg>